# xmcd
#
# Track frame offsets:
#	150
#	21948
#	48399
#	71584
#	94601
#	117554
#	139128
#	153702
#	179523
#	202303
#	224107
#	243499
#
# Disc length: 3511 seconds
#
# Revision: 2
# Processed by: cddbd v1.5.2PL0 Copyright (c) Steve Scherf et al.
# Submitted via: audiograbber 1.83.01
#
DISCID=c20db50c
DTITLE=Auscultate - Gregorian Chants - Liebeshymnen
DYEAR=2003
DGENRE=
TTITLE0=Tears In Heaven
TTITLE1=Nothing Else Matters
TTITLE2=Nights In White Satin
TTITLE3=I Won't Hold You Back
TTITLE4=Who Want's To Live Forever
TTITLE5=Everything I Do - I Do It For You
TTITLE6=Scarborough Fair
TTITLE7=I Want To Know What Love Is
TTITLE8=I'm Not In Love
TTITLE9=Wind Of Change
TTITLE10=Across The Vniverse
TTITLE11=The Show Must Go On
EXTD=
EXTT0=
EXTT1=
EXTT2=
EXTT3=
EXTT4=
EXTT5=
EXTT6=
EXTT7=
EXTT8=
EXTT9=
EXTT10=
EXTT11=
PLAYORDER=
